<svg width="66" height="67" viewBox="0 0 66 67" fill="none" xmlns="http://www.w3.org/2000/svg">
<g clip-path="url(#clip0_34_475)">
<mask id="mask0_34_475" style="mask-type:luminance" maskUnits="userSpaceOnUse" x="0" y="0" width="66" height="67">
<path d="M65.1314 0.934326H0V66.0657H65.1314V0.934326Z" fill="white"/>
</mask>
<g mask="url(#mask0_34_475)">
<path fill-rule="evenodd" clip-rule="evenodd" d="M65.1314 17.2172V0.934328L32.5657 0.934326V17.2108C32.5622 8.22093 25.2735 0.934328 16.2828 0.934328H7.11746e-07V33.5H16.2828C7.29009 33.5 -3.93087e-07 40.7902 0 49.7828L7.11746e-07 66.0657H32.5657V49.7828C32.5657 58.7755 39.8558 66.0657 48.8485 66.0657H65.1314V33.5H48.855C57.8448 33.4965 65.1314 26.2078 65.1314 17.2172Z" fill="url(#paint0_linear_34_475)"/>
</g>
</g>
<defs>
<linearGradient id="paint0_linear_34_475" x1="32.5657" y1="0.934326" x2="32.5657" y2="66.0657" gradientUnits="userSpaceOnUse">
<stop stop-color="#244AC8"/>
<stop offset="1" stop-color="#6224C8" stop-opacity="0.76"/>
</linearGradient>
<clipPath id="clip0_34_475">
<rect width="65.1314" height="65.1314" fill="white" transform="translate(0 0.934326)"/>
</clipPath>
</defs>
</svg>
