<svg width="63" height="62" viewBox="0 0 63 62" fill="none" xmlns="http://www.w3.org/2000/svg">
<path d="M29.6904 20.7245L20.16 30.255C20.0142 30.4008 19.9335 30.5998 19.9357 30.8082C19.9379 31.0166 20.0228 31.2174 20.1717 31.3663L29.9049 41.0995C30.0538 41.2484 30.2546 41.3333 30.463 41.3355C30.6714 41.3377 30.8704 41.257 31.0162 41.1112C31.1621 40.9654 31.2428 40.7664 31.2406 40.5579C31.2384 40.3495 31.1535 40.1488 31.0045 39.9998L22.6284 31.6237L44.4388 31.844C44.6451 31.8462 44.8421 31.7663 44.9865 31.6219C45.1308 31.4776 45.2107 31.2806 45.2085 31.0742C45.2064 30.8679 45.1223 30.6692 44.9749 30.5218C44.8274 30.3743 44.6287 30.2903 44.4224 30.2881L22.6118 30.0493L30.8135 21.8476C30.9593 21.7018 31.04 21.5028 31.0378 21.2943C31.0356 21.0859 30.9507 20.8852 30.8018 20.7362C30.6528 20.5873 30.4521 20.5024 30.2437 20.5002C30.0352 20.498 29.8362 20.5787 29.6904 20.7245Z" fill="#0B1E1C"/>
<circle cx="30.9445" cy="30.9445" r="30.1761" transform="matrix(-1 0 0 1 62.1992 0)" stroke="#0B1E1C" stroke-width="1.53671"/>
</svg>
