<svg width="33" height="33" viewBox="0 0 33 33" fill="none" xmlns="http://www.w3.org/2000/svg">
<path d="M29.5605 11.094C29.186 10.7196 28.6782 10.5093 28.1486 10.5093C27.6191 10.5093 27.1112 10.7196 26.7367 11.094L16.8513 20.9794L6.96593 11.094C6.58928 10.7302 6.08482 10.5289 5.5612 10.5335C5.03758 10.538 4.5367 10.748 4.16643 11.1183C3.79616 11.4886 3.58613 11.9895 3.58158 12.5131C3.57703 13.0367 3.77833 13.5412 4.1421 13.9178L15.4394 25.2151C15.8139 25.5895 16.3218 25.7998 16.8513 25.7998C17.3809 25.7998 17.8887 25.5895 18.2632 25.2151L29.5605 13.9178C29.9349 13.5433 30.1452 13.0354 30.1452 12.5059C30.1452 11.9763 29.9349 11.4685 29.5605 11.094Z" fill="#38587E"/>
</svg>
