<svg width="33" height="33" viewBox="0 0 33 33" fill="none" xmlns="http://www.w3.org/2000/svg">
<path d="M4.14065 22.302C4.51515 22.6764 5.02301 22.8867 5.55256 22.8867C6.08211 22.8867 6.58997 22.6764 6.96447 22.302L16.8499 12.4166L26.7352 22.302C27.1119 22.6658 27.6164 22.8671 28.14 22.8625C28.6636 22.858 29.1645 22.648 29.5347 22.2777C29.905 21.9074 30.115 21.4065 30.1196 20.8829C30.1241 20.3593 29.9228 19.8548 29.5591 19.4782L18.2618 8.1809C17.8873 7.80651 17.3794 7.59619 16.8499 7.59619C16.3203 7.59619 15.8124 7.80651 15.4379 8.1809L4.14065 19.4782C3.76626 19.8527 3.55594 20.3606 3.55594 20.8901C3.55594 21.4197 3.76626 21.9275 4.14065 22.302Z" fill="#38587E"/>
</svg>
