<svg width="63" height="62" viewBox="0 0 63 62" fill="none" xmlns="http://www.w3.org/2000/svg">
<path d="M32.6739 20.7245L42.2043 30.255C42.3501 30.4008 42.4308 30.5998 42.4286 30.8082C42.4264 31.0166 42.3415 31.2174 42.1926 31.3663L32.4594 41.0995C32.3105 41.2484 32.1097 41.3333 31.9013 41.3355C31.6929 41.3377 31.4938 41.257 31.348 41.1112C31.2022 40.9654 31.1215 40.7664 31.1237 40.5579C31.1259 40.3495 31.2108 40.1488 31.3597 39.9998L39.7359 31.6237L17.9255 31.844C17.7192 31.8462 17.5222 31.7663 17.3778 31.6219C17.2334 31.4776 17.1536 31.2806 17.1557 31.0742C17.1579 30.8679 17.242 30.6692 17.3894 30.5218C17.5368 30.3743 17.7356 30.2903 17.9419 30.2881L39.7525 30.0493L31.5508 21.8476C31.405 21.7018 31.3243 21.5028 31.3265 21.2943C31.3287 21.0859 31.4136 20.8852 31.5625 20.7362C31.7114 20.5873 31.9122 20.5024 32.1206 20.5002C32.329 20.498 32.528 20.5787 32.6739 20.7245Z" fill="#0B1E1C"/>
<circle cx="31.1095" cy="30.9445" r="30.1761" stroke="#0B1E1C" stroke-width="1.53671"/>
</svg>
