<svg width="22" height="23" viewBox="0 0 22 23" fill="none" xmlns="http://www.w3.org/2000/svg">
<path d="M6.48292 0.876953H15.513C18.953 0.876953 21.748 3.67198 21.748 7.11201V16.1421C21.748 17.7957 21.0911 19.3816 19.9218 20.5509C18.7525 21.7202 17.1666 22.3771 15.513 22.3771H6.48292C3.04289 22.3771 0.247864 19.5821 0.247864 16.1421V7.11201C0.247864 5.45837 0.904769 3.87246 2.07407 2.70316C3.24337 1.53386 4.82928 0.876953 6.48292 0.876953ZM6.26791 3.02697C5.24152 3.02697 4.25716 3.43471 3.53139 4.16048C2.80562 4.88625 2.39788 5.87061 2.39788 6.897V16.3571C2.39788 18.4964 4.12865 20.2271 6.26791 20.2271H15.728C16.7544 20.2271 17.7388 19.8194 18.4645 19.0936C19.1903 18.3678 19.598 17.3835 19.598 16.3571V6.897C19.598 4.75774 17.8673 3.02697 15.728 3.02697H6.26791ZM16.6418 4.63948C16.9981 4.63948 17.3399 4.78106 17.5919 5.03306C17.8439 5.28507 17.9855 5.62686 17.9855 5.98325C17.9855 6.33963 17.8439 6.68143 17.5919 6.93343C17.3399 7.18543 16.9981 7.32701 16.6418 7.32701C16.2854 7.32701 15.9436 7.18543 15.6916 6.93343C15.4396 6.68143 15.298 6.33963 15.298 5.98325C15.298 5.62686 15.4396 5.28507 15.6916 5.03306C15.9436 4.78106 16.2854 4.63948 16.6418 4.63948ZM10.998 6.252C12.4235 6.252 13.7907 6.8183 14.7987 7.82631C15.8067 8.83433 16.373 10.2015 16.373 11.627C16.373 13.0526 15.8067 14.4198 14.7987 15.4278C13.7907 16.4358 12.4235 17.0021 10.998 17.0021C9.5724 17.0021 8.20524 16.4358 7.19722 15.4278C6.18921 14.4198 5.62291 13.0526 5.62291 11.627C5.62291 10.2015 6.18921 8.83433 7.19722 7.82631C8.20524 6.8183 9.5724 6.252 10.998 6.252ZM10.998 8.40202C10.1426 8.40202 9.32233 8.7418 8.71752 9.34661C8.11271 9.95142 7.77293 10.7717 7.77293 11.627C7.77293 12.4824 8.11271 13.3027 8.71752 13.9075C9.32233 14.5123 10.1426 14.8521 10.998 14.8521C11.8533 14.8521 12.6736 14.5123 13.2784 13.9075C13.8832 13.3027 14.223 12.4824 14.223 11.627C14.223 10.7717 13.8832 9.95142 13.2784 9.34661C12.6736 8.7418 11.8533 8.40202 10.998 8.40202Z" fill="#244AC8"/>
</svg>
