<svg width="20" height="21" viewBox="0 0 20 21" fill="none" xmlns="http://www.w3.org/2000/svg">
<path d="M17.75 0.952393C18.3202 0.952393 18.867 1.1789 19.2702 1.58209C19.6734 1.98528 19.8999 2.53211 19.8999 3.10231V18.1517C19.8999 18.7219 19.6734 19.2687 19.2702 19.6719C18.867 20.0751 18.3202 20.3016 17.75 20.3016H2.70057C2.13038 20.3016 1.58354 20.0751 1.18035 19.6719C0.777167 19.2687 0.550659 18.7219 0.550659 18.1517V3.10231C0.550659 2.53211 0.777167 1.98528 1.18035 1.58209C1.58354 1.1789 2.13038 0.952393 2.70057 0.952393H17.75ZM17.2125 17.6142V11.917C17.2125 10.9875 16.8433 10.0962 16.1861 9.439C15.5289 8.78181 14.6376 8.4126 13.7081 8.4126C12.7944 8.4126 11.7302 8.97158 11.2142 9.81004V8.61684H8.21511V17.6142H11.2142V12.3147C11.2142 11.487 11.8807 10.8098 12.7084 10.8098C13.1076 10.8098 13.4904 10.9683 13.7726 11.2505C14.0548 11.5328 14.2134 11.9156 14.2134 12.3147V17.6142H17.2125ZM4.72149 6.92916C5.20046 6.92916 5.6598 6.73889 5.99848 6.40021C6.33716 6.06154 6.52742 5.60219 6.52742 5.12323C6.52742 4.12352 5.72121 3.30655 4.72149 3.30655C4.23968 3.30655 3.7776 3.49795 3.43691 3.83864C3.09622 4.17934 2.90482 4.64142 2.90482 5.12323C2.90482 6.12294 3.72178 6.92916 4.72149 6.92916ZM6.21569 17.6142V8.61684H3.23805V17.6142H6.21569Z" fill="#244AC8"/>
</svg>
