<svg width="34" height="35" viewBox="0 0 34 35" fill="none" xmlns="http://www.w3.org/2000/svg">
<g opacity="0.8">
<path d="M2.47027 25.9483C2.75501 28.2418 4.60777 30.0535 6.90627 30.2938C10.0868 30.6263 13.3832 30.9773 16.7612 30.9773C20.1392 30.9773 23.4355 30.6263 26.6161 30.2938C28.9146 30.0535 30.7673 28.2418 31.0521 25.9484C31.392 23.2102 31.7265 20.3785 31.7265 17.4799C31.7265 14.5814 31.392 11.7496 31.0521 9.01151C30.7673 6.71809 28.9146 4.90635 26.6161 4.66608C23.4355 4.33361 20.1392 3.98254 16.7612 3.98254C13.3832 3.98254 10.0868 4.33361 6.90627 4.66608C4.60777 4.90634 2.75501 6.71809 2.47027 9.01151C2.13032 11.7496 1.79584 14.5814 1.79584 17.4799C1.79584 20.3785 2.13032 23.2102 2.47027 25.9483Z" fill="#D7E0FF" stroke="#244AC8" stroke-width="3.59168" stroke-linejoin="round"/>
<path d="M2.53711 8.39148L13.7961 17.2688C15.5351 18.6399 17.9873 18.6399 19.7263 17.2688L30.9853 8.39148" stroke="#244AC8" stroke-width="3.59168" stroke-linejoin="round"/>
</g>
</svg>
