<svg width="34" height="34" viewBox="0 0 34 34" fill="none" xmlns="http://www.w3.org/2000/svg">
<g opacity="0.8">
<path d="M11.5482 3.78373C9.84793 2.3588 7.31462 2.56362 6.02457 4.36837C5.67999 4.85043 5.27167 5.42539 4.56643 6.30758C2.14032 9.34238 2.14033 13.7367 4.57983 16.7607C6.38072 18.9931 8.26893 21.2457 10.3797 23.3565C12.4905 25.4673 14.7431 27.3555 16.9755 29.1564C19.9995 31.5959 24.3938 31.5959 27.4286 29.1698C28.3699 28.4173 28.9571 28.0073 29.4555 27.6513C31.1989 26.4064 31.4431 23.9643 30.0819 22.3102C29.0062 21.0031 27.8084 19.7561 26.6529 18.5388C25.7324 17.5692 24.1952 17.5058 23.1505 18.3401C22.8695 18.5645 22.5206 18.8603 21.8132 19.5235C18.3418 17.4607 16.2379 15.3311 14.2128 11.923C14.884 11.207 15.18 10.8571 15.4064 10.5734C16.2392 9.52954 16.1774 7.99629 15.202 7.08417C14.0132 5.97249 12.8034 4.83565 11.5482 3.78373Z" fill="#D7E0FF" stroke="#244AC8" stroke-width="3.59143" stroke-linejoin="round"/>
</g>
</svg>
