<svg width="852" height="149" viewBox="0 0 852 149" fill="none" xmlns="http://www.w3.org/2000/svg">
<path fill-rule="evenodd" clip-rule="evenodd" d="M0.384371 2.72831V148.183H26.7338V86.3931H94.1344V148.183H120.555V2.72831H94.1344V64.305H26.7338V2.72831H0.384371ZM264.377 115.725C270.248 104.551 273.184 91.1279 273.184 75.4556C273.184 59.7832 270.248 46.3836 264.377 35.2567C258.553 24.0825 250.599 15.5361 240.514 9.61751C230.476 3.69895 219.088 0.739674 206.352 0.739674C193.615 0.739674 182.204 3.69895 172.119 9.61751C162.081 15.5361 154.126 24.0825 148.255 35.2567C142.431 46.3836 139.519 59.7832 139.519 75.4556C139.519 91.0806 142.431 104.48 148.255 115.654C154.126 126.781 162.081 135.328 172.119 141.294C174.189 142.509 176.315 143.599 178.498 144.565C200.721 141.738 223.584 139.167 246.981 136.916C254.061 131.419 259.86 124.356 264.377 115.725ZM318.445 131.208C309.604 131.769 300.819 132.38 292.095 133.04V2.72831H346.641C357.815 2.72831 367.19 4.6696 374.766 8.55217C382.389 12.4347 388.142 17.8798 392.024 24.8874C395.954 31.8476 397.919 39.9679 397.919 49.2482C397.919 58.5758 395.931 66.6724 391.953 73.538C388.023 80.3562 382.223 85.6355 374.553 89.376C373.654 89.8087 372.732 90.2159 371.785 90.5979L392.119 127.817C382.516 128.089 372.96 128.428 363.456 128.829L345.257 94.9158H318.445V131.208ZM318.445 73.0408H342.735C349.269 73.0408 354.619 72.1412 358.786 70.3419C362.952 68.4954 366.03 65.8202 368.019 62.3164C370.055 58.7652 371.073 54.4092 371.073 49.2482C371.073 44.0872 370.055 39.6838 368.019 36.038C365.983 32.3448 362.881 29.5512 358.715 27.6573C354.548 25.716 349.174 24.7454 342.592 24.7454H318.445V73.0408ZM442.523 127.018C433.708 127.046 424.924 127.133 416.173 127.278V2.72831H442.523V127.018ZM570.028 130.956C535.009 128.621 500.123 127.383 465.631 127.082L536.931 24.8164H461.931V2.72831H569.602V19.1346L495.099 126.095H570.028V130.956ZM678.914 141.914C652.977 138.374 626.965 135.527 600.984 133.308C595.773 128.407 591.355 122.522 587.732 115.654C581.908 104.48 578.996 91.0806 578.996 75.4556C578.996 59.7832 581.908 46.3836 587.732 35.2567C593.603 24.0825 601.557 15.5361 611.595 9.61751C621.681 3.69895 633.092 0.739674 645.828 0.739674C658.565 0.739674 669.952 3.69895 679.99 9.61751C690.075 15.5361 698.03 24.0825 703.854 35.2567C709.725 46.3836 712.661 59.7832 712.661 75.4556C712.661 91.1279 709.725 104.551 703.854 115.725C698.03 126.852 690.075 135.375 679.99 141.294C679.633 141.504 679.274 141.711 678.914 141.914ZM241.508 47.5436C244.964 55.1194 246.693 64.4234 246.693 75.4556C246.693 86.4878 244.964 95.8154 241.508 103.439C238.099 111.014 233.364 116.767 227.303 120.697C221.243 124.58 214.259 126.521 206.352 126.521C198.445 126.521 191.461 124.58 185.4 120.697C179.339 116.767 174.581 111.014 171.124 103.439C167.715 95.8154 166.011 86.4878 166.011 75.4556C166.011 64.4234 167.715 55.1194 171.124 47.5436C174.581 39.9205 179.339 34.1677 185.4 30.2851C191.461 26.3552 198.445 24.3902 206.352 24.3902C214.259 24.3902 221.243 26.3552 227.303 30.2851C233.364 34.1677 238.099 39.9205 241.508 47.5436ZM680.984 47.5436C684.441 55.1194 686.169 64.4234 686.169 75.4556C686.169 86.4878 684.441 95.8154 680.984 103.439C677.575 111.014 672.841 116.767 666.78 120.697C660.719 124.58 653.735 126.521 645.828 126.521C637.921 126.521 630.937 124.58 624.877 120.697C618.816 116.767 614.057 111.014 610.601 103.439C607.192 95.8154 605.487 86.4878 605.487 75.4556C605.487 64.4234 607.192 55.1194 610.601 47.5436C614.057 39.9205 618.816 34.1677 624.877 30.2851C630.937 26.3552 637.921 24.3902 645.828 24.3902C653.735 24.3902 660.719 26.3552 666.78 30.2851C672.841 34.1677 677.575 39.9205 680.984 47.5436ZM827.666 148.183H851.103V2.72831H824.896V101.876H823.617L755.151 2.72831H731.572V148.183H757.921V49.1062H759.129L827.666 148.183Z" fill="url(#paint0_linear_12_177)"/>
<path fill-rule="evenodd" clip-rule="evenodd" d="M0.384371 2.72831V148.183H26.7338V86.3931H94.1344V148.183H120.555V2.72831H94.1344V64.305H26.7338V2.72831H0.384371ZM264.377 115.725C270.248 104.551 273.184 91.1279 273.184 75.4556C273.184 59.7832 270.248 46.3836 264.377 35.2567C258.553 24.0825 250.599 15.5361 240.514 9.61751C230.476 3.69895 219.088 0.739674 206.352 0.739674C193.615 0.739674 182.204 3.69895 172.119 9.61751C162.081 15.5361 154.126 24.0825 148.255 35.2567C142.431 46.3836 139.519 59.7832 139.519 75.4556C139.519 91.0806 142.431 104.48 148.255 115.654C154.126 126.781 162.081 135.328 172.119 141.294C174.189 142.509 176.315 143.599 178.498 144.565C200.721 141.738 223.584 139.167 246.981 136.916C254.061 131.419 259.86 124.356 264.377 115.725ZM318.445 131.208C309.604 131.769 300.819 132.38 292.095 133.04V2.72831H346.641C357.815 2.72831 367.19 4.6696 374.766 8.55217C382.389 12.4347 388.142 17.8798 392.024 24.8874C395.954 31.8476 397.919 39.9679 397.919 49.2482C397.919 58.5758 395.931 66.6724 391.953 73.538C388.023 80.3562 382.223 85.6355 374.553 89.376C373.654 89.8087 372.732 90.2159 371.785 90.5979L392.119 127.817C382.516 128.089 372.96 128.428 363.456 128.829L345.257 94.9158H318.445V131.208ZM318.445 73.0408H342.735C349.269 73.0408 354.619 72.1412 358.786 70.3419C362.952 68.4954 366.03 65.8202 368.019 62.3164C370.055 58.7652 371.073 54.4092 371.073 49.2482C371.073 44.0872 370.055 39.6838 368.019 36.038C365.983 32.3448 362.881 29.5512 358.715 27.6573C354.548 25.716 349.174 24.7454 342.592 24.7454H318.445V73.0408ZM442.523 127.018C433.708 127.046 424.924 127.133 416.173 127.278V2.72831H442.523V127.018ZM570.028 130.956C535.009 128.621 500.123 127.383 465.631 127.082L536.931 24.8164H461.931V2.72831H569.602V19.1346L495.099 126.095H570.028V130.956ZM678.914 141.914C652.977 138.374 626.965 135.527 600.984 133.308C595.773 128.407 591.355 122.522 587.732 115.654C581.908 104.48 578.996 91.0806 578.996 75.4556C578.996 59.7832 581.908 46.3836 587.732 35.2567C593.603 24.0825 601.557 15.5361 611.595 9.61751C621.681 3.69895 633.092 0.739674 645.828 0.739674C658.565 0.739674 669.952 3.69895 679.99 9.61751C690.075 15.5361 698.03 24.0825 703.854 35.2567C709.725 46.3836 712.661 59.7832 712.661 75.4556C712.661 91.1279 709.725 104.551 703.854 115.725C698.03 126.852 690.075 135.375 679.99 141.294C679.633 141.504 679.274 141.711 678.914 141.914ZM241.508 47.5436C244.964 55.1194 246.693 64.4234 246.693 75.4556C246.693 86.4878 244.964 95.8154 241.508 103.439C238.099 111.014 233.364 116.767 227.303 120.697C221.243 124.58 214.259 126.521 206.352 126.521C198.445 126.521 191.461 124.58 185.4 120.697C179.339 116.767 174.581 111.014 171.124 103.439C167.715 95.8154 166.011 86.4878 166.011 75.4556C166.011 64.4234 167.715 55.1194 171.124 47.5436C174.581 39.9205 179.339 34.1677 185.4 30.2851C191.461 26.3552 198.445 24.3902 206.352 24.3902C214.259 24.3902 221.243 26.3552 227.303 30.2851C233.364 34.1677 238.099 39.9205 241.508 47.5436ZM680.984 47.5436C684.441 55.1194 686.169 64.4234 686.169 75.4556C686.169 86.4878 684.441 95.8154 680.984 103.439C677.575 111.014 672.841 116.767 666.78 120.697C660.719 124.58 653.735 126.521 645.828 126.521C637.921 126.521 630.937 124.58 624.877 120.697C618.816 116.767 614.057 111.014 610.601 103.439C607.192 95.8154 605.487 86.4878 605.487 75.4556C605.487 64.4234 607.192 55.1194 610.601 47.5436C614.057 39.9205 618.816 34.1677 624.877 30.2851C630.937 26.3552 637.921 24.3902 645.828 24.3902C653.735 24.3902 660.719 26.3552 666.78 30.2851C672.841 34.1677 677.575 39.9205 680.984 47.5436ZM827.666 148.183H851.103V2.72831H824.896V101.876H823.617L755.151 2.72831H731.572V148.183H757.921V49.1062H759.129L827.666 148.183Z" fill="black" fill-opacity="0.2"/>
<path fill-rule="evenodd" clip-rule="evenodd" d="M0.384371 2.72831V148.183H26.7338V86.3931H94.1344V148.183H120.555V2.72831H94.1344V64.305H26.7338V2.72831H0.384371ZM264.377 115.725C270.248 104.551 273.184 91.1279 273.184 75.4556C273.184 59.7832 270.248 46.3836 264.377 35.2567C258.553 24.0825 250.599 15.5361 240.514 9.61751C230.476 3.69895 219.088 0.739674 206.352 0.739674C193.615 0.739674 182.204 3.69895 172.119 9.61751C162.081 15.5361 154.126 24.0825 148.255 35.2567C142.431 46.3836 139.519 59.7832 139.519 75.4556C139.519 91.0806 142.431 104.48 148.255 115.654C154.126 126.781 162.081 135.328 172.119 141.294C174.189 142.509 176.315 143.599 178.498 144.565C200.721 141.738 223.584 139.167 246.981 136.916C254.061 131.419 259.86 124.356 264.377 115.725ZM318.445 131.208C309.604 131.769 300.819 132.38 292.095 133.04V2.72831H346.641C357.815 2.72831 367.19 4.6696 374.766 8.55217C382.389 12.4347 388.142 17.8798 392.024 24.8874C395.954 31.8476 397.919 39.9679 397.919 49.2482C397.919 58.5758 395.931 66.6724 391.953 73.538C388.023 80.3562 382.223 85.6355 374.553 89.376C373.654 89.8087 372.732 90.2159 371.785 90.5979L392.119 127.817C382.516 128.089 372.96 128.428 363.456 128.829L345.257 94.9158H318.445V131.208ZM318.445 73.0408H342.735C349.269 73.0408 354.619 72.1412 358.786 70.3419C362.952 68.4954 366.03 65.8202 368.019 62.3164C370.055 58.7652 371.073 54.4092 371.073 49.2482C371.073 44.0872 370.055 39.6838 368.019 36.038C365.983 32.3448 362.881 29.5512 358.715 27.6573C354.548 25.716 349.174 24.7454 342.592 24.7454H318.445V73.0408ZM442.523 127.018C433.708 127.046 424.924 127.133 416.173 127.278V2.72831H442.523V127.018ZM570.028 130.956C535.009 128.621 500.123 127.383 465.631 127.082L536.931 24.8164H461.931V2.72831H569.602V19.1346L495.099 126.095H570.028V130.956ZM678.914 141.914C652.977 138.374 626.965 135.527 600.984 133.308C595.773 128.407 591.355 122.522 587.732 115.654C581.908 104.48 578.996 91.0806 578.996 75.4556C578.996 59.7832 581.908 46.3836 587.732 35.2567C593.603 24.0825 601.557 15.5361 611.595 9.61751C621.681 3.69895 633.092 0.739674 645.828 0.739674C658.565 0.739674 669.952 3.69895 679.99 9.61751C690.075 15.5361 698.03 24.0825 703.854 35.2567C709.725 46.3836 712.661 59.7832 712.661 75.4556C712.661 91.1279 709.725 104.551 703.854 115.725C698.03 126.852 690.075 135.375 679.99 141.294C679.633 141.504 679.274 141.711 678.914 141.914ZM241.508 47.5436C244.964 55.1194 246.693 64.4234 246.693 75.4556C246.693 86.4878 244.964 95.8154 241.508 103.439C238.099 111.014 233.364 116.767 227.303 120.697C221.243 124.58 214.259 126.521 206.352 126.521C198.445 126.521 191.461 124.58 185.4 120.697C179.339 116.767 174.581 111.014 171.124 103.439C167.715 95.8154 166.011 86.4878 166.011 75.4556C166.011 64.4234 167.715 55.1194 171.124 47.5436C174.581 39.9205 179.339 34.1677 185.4 30.2851C191.461 26.3552 198.445 24.3902 206.352 24.3902C214.259 24.3902 221.243 26.3552 227.303 30.2851C233.364 34.1677 238.099 39.9205 241.508 47.5436ZM680.984 47.5436C684.441 55.1194 686.169 64.4234 686.169 75.4556C686.169 86.4878 684.441 95.8154 680.984 103.439C677.575 111.014 672.841 116.767 666.78 120.697C660.719 124.58 653.735 126.521 645.828 126.521C637.921 126.521 630.937 124.58 624.877 120.697C618.816 116.767 614.057 111.014 610.601 103.439C607.192 95.8154 605.487 86.4878 605.487 75.4556C605.487 64.4234 607.192 55.1194 610.601 47.5436C614.057 39.9205 618.816 34.1677 624.877 30.2851C630.937 26.3552 637.921 24.3902 645.828 24.3902C653.735 24.3902 660.719 26.3552 666.78 30.2851C672.841 34.1677 677.575 39.9205 680.984 47.5436ZM827.666 148.183H851.103V2.72831H824.896V101.876H823.617L755.151 2.72831H731.572V148.183H757.921V49.1062H759.129L827.666 148.183Z" fill="black" fill-opacity="0.2"/>
<defs>
<linearGradient id="paint0_linear_12_177" x1="13.9338" y1="33.8051" x2="865.753" y2="111.078" gradientUnits="userSpaceOnUse">
<stop stop-color="#2449C8"/>
<stop offset="1" stop-color="#39A9DC"/>
</linearGradient>
</defs>
</svg>
