<svg width="34" height="35" viewBox="0 0 34 35" fill="none" xmlns="http://www.w3.org/2000/svg">
<g opacity="0.8">
<path d="M18.143 31.3509C21.1964 28.705 28.2455 21.7607 28.2455 14.0424C28.2455 7.69911 23.1033 2.55688 16.76 2.55688C10.4168 2.55688 5.27454 7.69911 5.27454 14.0424C5.27454 21.7607 12.3236 28.705 15.3771 31.3509C16.1795 32.0463 17.3405 32.0463 18.143 31.3509Z" fill="#D7E0FF" stroke="#244AC8" stroke-width="3.59143" stroke-linecap="round" stroke-linejoin="round"/>
<path d="M16.76 18.0722C19.3581 18.0722 21.4643 15.966 21.4643 13.3679C21.4643 10.7699 19.3581 8.6637 16.76 8.6637C14.1619 8.6637 12.0558 10.7699 12.0558 13.3679C12.0558 15.966 14.1619 18.0722 16.76 18.0722Z" fill="white" stroke="#244AC8" stroke-width="3.59143" stroke-linecap="round" stroke-linejoin="round"/>
</g>
</svg>
