<svg width="23" height="19" viewBox="0 0 23 19" fill="none" xmlns="http://www.w3.org/2000/svg">
<path d="M22.6294 2.17663C21.8016 2.55288 20.9094 2.80014 19.9849 2.91839C20.9309 2.34863 21.6619 1.44562 22.0059 0.359864C21.1136 0.897369 20.1246 1.27362 19.0819 1.48862C18.2326 0.564116 17.0393 0.0266113 15.6848 0.0266113C13.1586 0.0266113 11.0945 2.09063 11.0945 4.6384C11.0945 5.00391 11.1375 5.35866 11.2128 5.69191C7.38576 5.49841 3.97798 3.66014 1.70971 0.875869C1.31196 1.55312 1.08621 2.34863 1.08621 3.18714C1.08621 4.7889 1.89246 6.20792 3.13947 7.01417C2.37622 7.01417 1.66671 6.79917 1.04321 6.47667V6.50892C1.04321 8.74494 2.63422 10.6155 4.74124 11.0347C4.06476 11.2198 3.35458 11.2456 2.66647 11.11C2.95845 12.0264 3.53028 12.8283 4.30158 13.4029C5.07287 13.9775 6.00485 14.296 6.96651 14.3135C5.33639 15.604 3.31577 16.3015 1.23671 16.2915C0.871204 16.2915 0.505701 16.27 0.140198 16.227C2.18272 17.5385 4.61224 18.3018 7.21376 18.3018C15.6848 18.3018 20.3396 11.2712 20.3396 5.17591C20.3396 4.97165 20.3396 4.77815 20.3289 4.5739C21.2319 3.9289 22.0059 3.11189 22.6294 2.17663Z" fill="#244AC8"/>
</svg>
